<svg width="200" height="200" viewBox="0 0 200 200" xmlns="http://www.w3.org/2000/svg">
  <!-- IEEE Main Logo for Profile Section -->
  <defs>
    <linearGradient id="mainGradient" x1="0%" y1="0%" x2="100%" y2="100%">
      <stop offset="0%" style="stop-color:#0dcaf0;stop-opacity:1" />
      <stop offset="50%" style="stop-color:#06b6d4;stop-opacity:1" />
      <stop offset="100%" style="stop-color:#0891b2;stop-opacity:1" />
    </linearGradient>
    <filter id="mainGlow">
      <feGaussianBlur stdDeviation="3" result="coloredBlur"/>
      <feMerge> 
        <feMergeNode in="coloredBlur"/>
        <feMergeNode in="SourceGraphic"/>
      </feMerge>
    </filter>
    <radialGradient id="bgGradient" cx="50%" cy="50%" r="50%">
      <stop offset="0%" style="stop-color:rgba(13, 202, 240, 0.1);stop-opacity:1" />
      <stop offset="100%" style="stop-color:rgba(13, 202, 240, 0.05);stop-opacity:1" />
    </radialGradient>
  </defs>
  
  <!-- Background circle -->
  <circle cx="100" cy="100" r="95" fill="url(#bgGradient)"/>
  <circle cx="100" cy="100" r="95" fill="none" stroke="url(#mainGradient)" stroke-width="2" filter="url(#mainGlow)"/>
  
  <!-- Inner design circle -->
  <circle cx="100" cy="100" r="75" fill="none" stroke="url(#mainGradient)" stroke-width="1" opacity="0.6"/>
  
  <!-- IEEE Text - Main -->
  <text x="100" y="85" font-family="Arial, sans-serif" font-size="28" font-weight="bold" 
        text-anchor="middle" fill="url(#mainGradient)" filter="url(#mainGlow)">IEEE</text>
  
  <!-- Student Branch text -->
  <text x="100" y="105" font-family="Arial, sans-serif" font-size="12" 
        text-anchor="middle" fill="#0dcaf0" opacity="0.9">STUDENT BRANCH</text>
  
  <!-- SJCET text -->
  <text x="100" y="125" font-family="Arial, sans-serif" font-size="16" font-weight="bold"
        text-anchor="middle" fill="url(#mainGradient)">SJCET PALAI</text>
  
  <!-- Decorative circuit elements -->
  <g stroke="#0dcaf0" stroke-width="1.5" fill="none" opacity="0.4">
    <!-- Top circuit -->
    <path d="M70 40 L85 40 L85 35 L100 35 L100 40 L115 40 L130 40"/>
    <circle cx="82" cy="37" r="1.5" fill="#0dcaf0"/>
    <circle cx="103" cy="37" r="1.5" fill="#0dcaf0"/>
    <circle cx="118" cy="37" r="1.5" fill="#0dcaf0"/>
    
    <!-- Bottom circuit -->
    <path d="M70 160 L85 160 L85 165 L100 165 L100 160 L115 160 L130 160"/>
    <circle cx="82" cy="163" r="1.5" fill="#0dcaf0"/>
    <circle cx="103" cy="163" r="1.5" fill="#0dcaf0"/>
    <circle cx="118" cy="163" r="1.5" fill="#0dcaf0"/>
    
    <!-- Side circuits -->
    <path d="M40 70 L40 85 L35 85 L35 100 L40 100 L40 115 L40 130"/>
    <path d="M160 70 L160 85 L165 85 L165 100 L160 100 L160 115 L160 130"/>
  </g>
  
  <!-- Corner tech elements -->
  <g fill="#0dcaf0" opacity="0.6">
    <rect x="25" y="25" width="3" height="3" rx="1"/>
    <rect x="172" y="25" width="3" height="3" rx="1"/>
    <rect x="25" y="172" width="3" height="3" rx="1"/>
    <rect x="172" y="172" width="3" height="3" rx="1"/>
  </g>
</svg>